<mxfile host="app.diagrams.net" modified="2023-10-31T22:05:08.548Z" agent="Mozilla/5.0 (Windows NT 10.0; Win64; x64) AppleWebKit/537.36 (KHTML, like Gecko) Chrome/118.0.0.0 Safari/537.36" etag="KbujXABFyjS4cnZeZEGk" version="22.0.8" type="github" pages="2">
  <diagram name="Página-1" id="MP5_-ijwoZsD_Xfd1zwi">
    <mxGraphModel dx="880" dy="478" grid="1" gridSize="10" guides="1" tooltips="1" connect="1" arrows="1" fold="1" page="1" pageScale="1" pageWidth="827" pageHeight="1169" math="0" shadow="0">
      <root>
        <mxCell id="0" />
        <mxCell id="1" parent="0" />
        <mxCell id="GP5UtSploN3r0lsSOSVI-1" value="Início" style="strokeWidth=2;html=1;shape=mxgraph.flowchart.start_2;whiteSpace=wrap;" parent="1" vertex="1">
          <mxGeometry x="80" y="150" width="160" height="120" as="geometry" />
        </mxCell>
        <mxCell id="GP5UtSploN3r0lsSOSVI-3" value="" style="shape=flexArrow;endArrow=classic;html=1;rounded=0;" parent="1" edge="1">
          <mxGeometry width="50" height="50" relative="1" as="geometry">
            <mxPoint x="159.5" y="280" as="sourcePoint" />
            <mxPoint x="160" y="320" as="targetPoint" />
          </mxGeometry>
        </mxCell>
        <mxCell id="GP5UtSploN3r0lsSOSVI-5" value="Saldo &quot;S&quot;" style="html=1;strokeWidth=2;shape=manualInput;whiteSpace=wrap;rounded=1;size=26;arcSize=11;" parent="1" vertex="1">
          <mxGeometry x="90" y="500" width="140" height="100" as="geometry" />
        </mxCell>
        <mxCell id="GP5UtSploN3r0lsSOSVI-6" value="" style="shape=flexArrow;endArrow=classic;html=1;rounded=0;" parent="1" edge="1">
          <mxGeometry width="50" height="50" relative="1" as="geometry">
            <mxPoint x="159.5" y="450" as="sourcePoint" />
            <mxPoint x="160" y="490" as="targetPoint" />
          </mxGeometry>
        </mxCell>
        <mxCell id="GP5UtSploN3r0lsSOSVI-8" value="&lt;div&gt;Solicitar o Saldo Inicial&lt;/div&gt;&lt;div&gt;da Peça&lt;br&gt;&lt;/div&gt;" style="shape=display;whiteSpace=wrap;html=1;" parent="1" vertex="1">
          <mxGeometry x="80" y="340" width="160" height="90" as="geometry" />
        </mxCell>
        <mxCell id="GP5UtSploN3r0lsSOSVI-11" value="" style="shape=flexArrow;endArrow=classic;html=1;rounded=0;" parent="1" edge="1">
          <mxGeometry width="50" height="50" relative="1" as="geometry">
            <mxPoint x="159.5" y="620" as="sourcePoint" />
            <mxPoint x="160" y="660" as="targetPoint" />
          </mxGeometry>
        </mxCell>
        <mxCell id="GP5UtSploN3r0lsSOSVI-14" value="Entrada de Dados" style="rhombus;whiteSpace=wrap;html=1;" parent="1" vertex="1">
          <mxGeometry x="90" y="690" width="150" height="130" as="geometry" />
        </mxCell>
        <mxCell id="GP5UtSploN3r0lsSOSVI-15" value="" style="shape=flexArrow;endArrow=classic;html=1;rounded=0;" parent="1" edge="1">
          <mxGeometry width="50" height="50" relative="1" as="geometry">
            <mxPoint x="220" y="800" as="sourcePoint" />
            <mxPoint x="250" y="830" as="targetPoint" />
          </mxGeometry>
        </mxCell>
        <mxCell id="GP5UtSploN3r0lsSOSVI-16" value="" style="shape=flexArrow;endArrow=classic;html=1;rounded=0;" parent="1" edge="1">
          <mxGeometry width="50" height="50" relative="1" as="geometry">
            <mxPoint x="100" y="810" as="sourcePoint" />
            <mxPoint x="80" y="850" as="targetPoint" />
          </mxGeometry>
        </mxCell>
        <mxCell id="GP5UtSploN3r0lsSOSVI-17" value="Compra= Somar Q + S" style="rounded=1;whiteSpace=wrap;html=1;absoluteArcSize=1;arcSize=14;strokeWidth=2;" parent="1" vertex="1">
          <mxGeometry x="10" y="860" width="170" height="100" as="geometry" />
        </mxCell>
        <mxCell id="GP5UtSploN3r0lsSOSVI-18" value="Venda= Subtrair Q-S (Se Q &amp;lt; OU = S)" style="rounded=1;whiteSpace=wrap;html=1;absoluteArcSize=1;arcSize=14;strokeWidth=2;" parent="1" vertex="1">
          <mxGeometry x="220" y="850" width="170" height="100" as="geometry" />
        </mxCell>
      </root>
    </mxGraphModel>
  </diagram>
  <diagram id="zAwM45DpHathXPrW85D2" name="Página-2">
    <mxGraphModel dx="1120" dy="478" grid="1" gridSize="10" guides="1" tooltips="1" connect="1" arrows="1" fold="1" page="1" pageScale="1" pageWidth="980" pageHeight="690" math="0" shadow="0">
      <root>
        <mxCell id="0" />
        <mxCell id="1" parent="0" />
        <mxCell id="URq3C6O7KlHp4ZyZ8w96-1" value="INICIO" style="rounded=1;whiteSpace=wrap;html=1;absoluteArcSize=1;arcSize=14;strokeWidth=2;" parent="1" vertex="1">
          <mxGeometry x="40" y="60" width="130" height="70" as="geometry" />
        </mxCell>
        <mxCell id="URq3C6O7KlHp4ZyZ8w96-2" value="&lt;div&gt;SOLICITAR O N/ DE PEÇAS&lt;/div&gt;&lt;div&gt;NO ESTOQUE&lt;br&gt;&lt;/div&gt;" style="rounded=1;whiteSpace=wrap;html=1;absoluteArcSize=1;arcSize=14;strokeWidth=2;" parent="1" vertex="1">
          <mxGeometry x="40" y="170" width="130" height="70" as="geometry" />
        </mxCell>
        <mxCell id="URq3C6O7KlHp4ZyZ8w96-8" style="edgeStyle=orthogonalEdgeStyle;rounded=0;orthogonalLoop=1;jettySize=auto;html=1;" parent="1" edge="1">
          <mxGeometry relative="1" as="geometry">
            <mxPoint x="560" y="260" as="targetPoint" />
            <mxPoint x="520" y="311" as="sourcePoint" />
          </mxGeometry>
        </mxCell>
        <mxCell id="URq3C6O7KlHp4ZyZ8w96-3" value="&lt;div&gt;QUANTIDADE DE PEÇAS&lt;/div&gt;&lt;div&gt;NO ESTOQUE= &quot;E&quot;&lt;br&gt;&lt;/div&gt;" style="rounded=1;whiteSpace=wrap;html=1;absoluteArcSize=1;arcSize=14;strokeWidth=2;" parent="1" vertex="1">
          <mxGeometry x="40" y="290" width="130" height="60" as="geometry" />
        </mxCell>
        <mxCell id="URq3C6O7KlHp4ZyZ8w96-5" value="" style="endArrow=classic;html=1;rounded=0;exitX=0.382;exitY=1.04;exitDx=0;exitDy=0;exitPerimeter=0;" parent="1" edge="1">
          <mxGeometry width="50" height="50" relative="1" as="geometry">
            <mxPoint x="104.49999999999997" y="129.99999999999994" as="sourcePoint" />
            <mxPoint x="105" y="170" as="targetPoint" />
          </mxGeometry>
        </mxCell>
        <mxCell id="URq3C6O7KlHp4ZyZ8w96-6" value="" style="endArrow=classic;html=1;rounded=0;entryX=0.5;entryY=0;entryDx=0;entryDy=0;" parent="1" source="URq3C6O7KlHp4ZyZ8w96-2" edge="1" target="URq3C6O7KlHp4ZyZ8w96-3">
          <mxGeometry width="50" height="50" relative="1" as="geometry">
            <mxPoint x="170" y="370" as="sourcePoint" />
            <mxPoint x="200" y="370" as="targetPoint" />
          </mxGeometry>
        </mxCell>
        <mxCell id="URq3C6O7KlHp4ZyZ8w96-10" value="SOLICITAR ADIÇÃO DE DADOS" style="rounded=1;whiteSpace=wrap;html=1;absoluteArcSize=1;arcSize=14;strokeWidth=2;" parent="1" vertex="1">
          <mxGeometry x="410" y="295" width="110" height="50" as="geometry" />
        </mxCell>
        <mxCell id="URq3C6O7KlHp4ZyZ8w96-11" value="N0 DE PEÇAS VENDIDAS = V" style="rounded=1;whiteSpace=wrap;html=1;absoluteArcSize=1;arcSize=14;strokeWidth=2;" parent="1" vertex="1">
          <mxGeometry x="540" y="397.5" width="110" height="45" as="geometry" />
        </mxCell>
        <mxCell id="URq3C6O7KlHp4ZyZ8w96-12" value="ENTRADA DE DADOS" style="rounded=1;whiteSpace=wrap;html=1;absoluteArcSize=1;arcSize=14;strokeWidth=2;" parent="1" vertex="1">
          <mxGeometry x="230" y="295" width="120" height="50" as="geometry" />
        </mxCell>
        <mxCell id="URq3C6O7KlHp4ZyZ8w96-13" value="" style="shape=flexArrow;endArrow=classic;html=1;rounded=0;" parent="1" edge="1">
          <mxGeometry width="50" height="50" relative="1" as="geometry">
            <mxPoint x="180" y="320" as="sourcePoint" />
            <mxPoint x="220" y="320" as="targetPoint" />
          </mxGeometry>
        </mxCell>
        <mxCell id="URq3C6O7KlHp4ZyZ8w96-14" value="&lt;div&gt;N0 DE&amp;nbsp;&lt;/div&gt;&lt;div&gt;PEÇAS&lt;/div&gt;&lt;div&gt;COMPRADAS = C&lt;/div&gt;" style="rounded=1;whiteSpace=wrap;html=1;absoluteArcSize=1;arcSize=14;strokeWidth=2;" parent="1" vertex="1">
          <mxGeometry x="520" y="200" width="110" height="50" as="geometry" />
        </mxCell>
        <mxCell id="URq3C6O7KlHp4ZyZ8w96-16" value="" style="shape=flexArrow;endArrow=classic;html=1;rounded=0;" parent="1" edge="1">
          <mxGeometry width="50" height="50" relative="1" as="geometry">
            <mxPoint x="360" y="320" as="sourcePoint" />
            <mxPoint x="400" y="320" as="targetPoint" />
          </mxGeometry>
        </mxCell>
        <mxCell id="nw8zfE0IweU4Bdvtm1-o-6" style="edgeStyle=orthogonalEdgeStyle;rounded=0;orthogonalLoop=1;jettySize=auto;html=1;exitX=1;exitY=0.5;exitDx=0;exitDy=0;" edge="1" parent="1" source="URq3C6O7KlHp4ZyZ8w96-17">
          <mxGeometry relative="1" as="geometry">
            <mxPoint x="1170" y="280" as="targetPoint" />
          </mxGeometry>
        </mxCell>
        <mxCell id="URq3C6O7KlHp4ZyZ8w96-17" value="E + C" style="rounded=1;whiteSpace=wrap;html=1;absoluteArcSize=1;arcSize=14;strokeWidth=2;" parent="1" vertex="1">
          <mxGeometry x="850" y="195" width="90" height="45" as="geometry" />
        </mxCell>
        <mxCell id="URq3C6O7KlHp4ZyZ8w96-18" value="" style="endArrow=none;html=1;rounded=0;exitX=1;exitY=0.5;exitDx=0;exitDy=0;entryX=0.092;entryY=0;entryDx=0;entryDy=0;entryPerimeter=0;" parent="1" edge="1" target="URq3C6O7KlHp4ZyZ8w96-28" source="URq3C6O7KlHp4ZyZ8w96-14">
          <mxGeometry width="50" height="50" relative="1" as="geometry">
            <mxPoint x="630" y="240" as="sourcePoint" />
            <mxPoint x="700" y="225" as="targetPoint" />
          </mxGeometry>
        </mxCell>
        <mxCell id="nw8zfE0IweU4Bdvtm1-o-7" style="edgeStyle=orthogonalEdgeStyle;rounded=0;orthogonalLoop=1;jettySize=auto;html=1;exitX=1;exitY=0.5;exitDx=0;exitDy=0;" edge="1" parent="1" source="URq3C6O7KlHp4ZyZ8w96-20" target="nw8zfE0IweU4Bdvtm1-o-4">
          <mxGeometry relative="1" as="geometry" />
        </mxCell>
        <mxCell id="URq3C6O7KlHp4ZyZ8w96-20" value="&lt;div&gt;V&amp;lt; OU = E &lt;br&gt;&lt;/div&gt;&lt;div&gt;ENTÃO OK&lt;br&gt;&lt;/div&gt;" style="rounded=1;whiteSpace=wrap;html=1;absoluteArcSize=1;arcSize=14;strokeWidth=2;" parent="1" vertex="1">
          <mxGeometry x="970" y="340" width="80" height="52.5" as="geometry" />
        </mxCell>
        <mxCell id="URq3C6O7KlHp4ZyZ8w96-21" value="E-V, SE:" style="rounded=1;whiteSpace=wrap;html=1;absoluteArcSize=1;arcSize=14;strokeWidth=2;" parent="1" vertex="1">
          <mxGeometry x="850" y="397.5" width="90" height="45" as="geometry" />
        </mxCell>
        <mxCell id="URq3C6O7KlHp4ZyZ8w96-22" value="" style="endArrow=none;html=1;rounded=0;exitX=1;exitY=0.5;exitDx=0;exitDy=0;" parent="1" edge="1">
          <mxGeometry width="50" height="50" relative="1" as="geometry">
            <mxPoint x="630" y="420" as="sourcePoint" />
            <mxPoint x="850" y="420" as="targetPoint" />
          </mxGeometry>
        </mxCell>
        <mxCell id="URq3C6O7KlHp4ZyZ8w96-23" value="&lt;div&gt;V&amp;gt; E &lt;br&gt;&lt;/div&gt;&lt;div&gt;SALDO INSUFICIENTE&lt;br&gt;&lt;/div&gt;" style="rounded=1;whiteSpace=wrap;html=1;absoluteArcSize=1;arcSize=14;strokeWidth=2;" parent="1" vertex="1">
          <mxGeometry x="960" y="480" width="100" height="50" as="geometry" />
        </mxCell>
        <mxCell id="URq3C6O7KlHp4ZyZ8w96-24" value="" style="endArrow=none;html=1;rounded=0;" parent="1" edge="1">
          <mxGeometry width="50" height="50" relative="1" as="geometry">
            <mxPoint x="940" y="397.5" as="sourcePoint" />
            <mxPoint x="970" y="367.5" as="targetPoint" />
          </mxGeometry>
        </mxCell>
        <mxCell id="URq3C6O7KlHp4ZyZ8w96-25" value="" style="endArrow=none;html=1;rounded=0;" parent="1" source="URq3C6O7KlHp4ZyZ8w96-21" edge="1">
          <mxGeometry width="50" height="50" relative="1" as="geometry">
            <mxPoint x="950" y="590" as="sourcePoint" />
            <mxPoint x="960" y="500" as="targetPoint" />
          </mxGeometry>
        </mxCell>
        <mxCell id="URq3C6O7KlHp4ZyZ8w96-26" value="DESCONSIDERAR ATUALIZAÇÃO DO SALDO" style="rounded=1;whiteSpace=wrap;html=1;absoluteArcSize=1;arcSize=14;strokeWidth=2;" parent="1" vertex="1">
          <mxGeometry x="980" y="590" width="110" height="50" as="geometry" />
        </mxCell>
        <mxCell id="URq3C6O7KlHp4ZyZ8w96-27" value="" style="endArrow=none;html=1;rounded=0;entryX=0.61;entryY=1.08;entryDx=0;entryDy=0;entryPerimeter=0;" parent="1" edge="1" target="URq3C6O7KlHp4ZyZ8w96-23">
          <mxGeometry width="50" height="50" relative="1" as="geometry">
            <mxPoint x="1040" y="590" as="sourcePoint" />
            <mxPoint x="1050" y="600" as="targetPoint" />
          </mxGeometry>
        </mxCell>
        <mxCell id="URq3C6O7KlHp4ZyZ8w96-28" value="AO ADICIONAR UM DADO, MOSTRAR O SALDO E" style="rounded=1;whiteSpace=wrap;html=1;absoluteArcSize=1;arcSize=14;strokeWidth=2;" parent="1" vertex="1">
          <mxGeometry x="690" y="290" width="120" height="60" as="geometry" />
        </mxCell>
        <mxCell id="URq3C6O7KlHp4ZyZ8w96-29" value="" style="endArrow=none;html=1;rounded=0;" parent="1" edge="1">
          <mxGeometry width="50" height="50" relative="1" as="geometry">
            <mxPoint x="630" y="220" as="sourcePoint" />
            <mxPoint x="850" y="220" as="targetPoint" />
          </mxGeometry>
        </mxCell>
        <mxCell id="URq3C6O7KlHp4ZyZ8w96-31" value="" style="endArrow=none;html=1;rounded=0;entryX=1;entryY=0.5;entryDx=0;entryDy=0;exitX=0.142;exitY=0.983;exitDx=0;exitDy=0;exitPerimeter=0;" parent="1" source="URq3C6O7KlHp4ZyZ8w96-28" edge="1" target="URq3C6O7KlHp4ZyZ8w96-11">
          <mxGeometry width="50" height="50" relative="1" as="geometry">
            <mxPoint x="720" y="420" as="sourcePoint" />
            <mxPoint x="765" y="525" as="targetPoint" />
          </mxGeometry>
        </mxCell>
        <mxCell id="nw8zfE0IweU4Bdvtm1-o-1" style="edgeStyle=orthogonalEdgeStyle;rounded=0;orthogonalLoop=1;jettySize=auto;html=1;" edge="1" parent="1">
          <mxGeometry relative="1" as="geometry">
            <mxPoint x="560" y="390" as="targetPoint" />
            <mxPoint x="520" y="341" as="sourcePoint" />
          </mxGeometry>
        </mxCell>
        <mxCell id="nw8zfE0IweU4Bdvtm1-o-4" value="DESEJA ADICIONAR MAIS DADOS" style="rounded=1;whiteSpace=wrap;html=1;absoluteArcSize=1;arcSize=14;strokeWidth=2;" vertex="1" parent="1">
          <mxGeometry x="1120" y="290" width="180" height="50" as="geometry" />
        </mxCell>
        <mxCell id="nw8zfE0IweU4Bdvtm1-o-10" value="" style="endArrow=classic;html=1;rounded=0;" edge="1" parent="1" target="nw8zfE0IweU4Bdvtm1-o-11">
          <mxGeometry width="50" height="50" relative="1" as="geometry">
            <mxPoint x="1300" y="295" as="sourcePoint" />
            <mxPoint x="1350" y="245" as="targetPoint" />
          </mxGeometry>
        </mxCell>
        <mxCell id="nw8zfE0IweU4Bdvtm1-o-11" value="SIM" style="rounded=1;whiteSpace=wrap;html=1;" vertex="1" parent="1">
          <mxGeometry x="1320" y="250" width="60" height="25" as="geometry" />
        </mxCell>
        <mxCell id="nw8zfE0IweU4Bdvtm1-o-12" value="NÃO" style="rounded=1;whiteSpace=wrap;html=1;" vertex="1" parent="1">
          <mxGeometry x="1320" y="350" width="60" height="25" as="geometry" />
        </mxCell>
        <mxCell id="nw8zfE0IweU4Bdvtm1-o-13" value="" style="endArrow=classic;html=1;rounded=0;exitX=1;exitY=0.75;exitDx=0;exitDy=0;entryX=0;entryY=0;entryDx=0;entryDy=0;" edge="1" parent="1" source="nw8zfE0IweU4Bdvtm1-o-4" target="nw8zfE0IweU4Bdvtm1-o-12">
          <mxGeometry width="50" height="50" relative="1" as="geometry">
            <mxPoint x="1310" y="305" as="sourcePoint" />
            <mxPoint x="1341" y="285" as="targetPoint" />
          </mxGeometry>
        </mxCell>
        <mxCell id="nw8zfE0IweU4Bdvtm1-o-14" value="" style="endArrow=classic;html=1;rounded=0;" edge="1" parent="1">
          <mxGeometry width="50" height="50" relative="1" as="geometry">
            <mxPoint x="1349.5" y="375" as="sourcePoint" />
            <mxPoint x="1349.5" y="422.5" as="targetPoint" />
          </mxGeometry>
        </mxCell>
        <mxCell id="nw8zfE0IweU4Bdvtm1-o-18" value="" style="edgeStyle=orthogonalEdgeStyle;rounded=0;orthogonalLoop=1;jettySize=auto;html=1;" edge="1" parent="1" source="nw8zfE0IweU4Bdvtm1-o-15" target="nw8zfE0IweU4Bdvtm1-o-17">
          <mxGeometry relative="1" as="geometry" />
        </mxCell>
        <mxCell id="nw8zfE0IweU4Bdvtm1-o-15" value="MENSAGEM &quot;SISTEMA ENCERRADO&quot;" style="rounded=1;whiteSpace=wrap;html=1;absoluteArcSize=1;arcSize=14;strokeWidth=2;" vertex="1" parent="1">
          <mxGeometry x="1270" y="430" width="150" height="40" as="geometry" />
        </mxCell>
        <mxCell id="nw8zfE0IweU4Bdvtm1-o-17" value="FIM" style="ellipse;whiteSpace=wrap;html=1;rounded=1;arcSize=14;strokeWidth=2;" vertex="1" parent="1">
          <mxGeometry x="1280" y="530" width="165" height="60" as="geometry" />
        </mxCell>
        <mxCell id="nw8zfE0IweU4Bdvtm1-o-20" value="" style="shape=partialRectangle;whiteSpace=wrap;html=1;top=0;left=0;fillColor=none;rotation=-90;" vertex="1" parent="1">
          <mxGeometry x="1270" y="160" width="120" height="60" as="geometry" />
        </mxCell>
        <mxCell id="nw8zfE0IweU4Bdvtm1-o-23" value="" style="endArrow=none;html=1;rounded=0;" edge="1" parent="1">
          <mxGeometry width="50" height="50" relative="1" as="geometry">
            <mxPoint x="460" y="130" as="sourcePoint" />
            <mxPoint x="1300" y="130" as="targetPoint" />
          </mxGeometry>
        </mxCell>
        <mxCell id="nw8zfE0IweU4Bdvtm1-o-24" value="" style="endArrow=classic;html=1;rounded=0;" edge="1" parent="1">
          <mxGeometry width="50" height="50" relative="1" as="geometry">
            <mxPoint x="460" y="130" as="sourcePoint" />
            <mxPoint x="460" y="290" as="targetPoint" />
          </mxGeometry>
        </mxCell>
      </root>
    </mxGraphModel>
  </diagram>
</mxfile>
